<svg width="939" height="396" viewBox="0 0 939 396" fill="none" xmlns="http://www.w3.org/2000/svg">
<path opacity="0.9" d="M109.177 291L72.1763 222.285H66.6262V291H14.8255V104.676H96.4909C111.467 104.676 124.153 107.319 134.549 112.605C144.944 117.714 152.784 124.85 158.07 134.012C163.356 142.998 165.999 153.129 165.999 164.405C165.999 177.091 162.475 188.28 155.427 197.97C148.556 207.485 138.425 214.268 125.034 218.32L167.056 291H109.177ZM66.6262 186.87H92.2622C99.31 186.87 104.596 185.196 108.12 181.849C111.643 178.501 113.405 173.656 113.405 167.313C113.405 161.322 111.555 156.653 107.855 153.305C104.331 149.781 99.1338 148.02 92.2622 148.02H66.6262V186.87ZM241.356 146.17V176.563H300.822V215.942H241.356V249.507H308.75V291H189.556V104.676H308.75V146.17H241.356ZM328.004 197.442C328.004 179.118 331.792 162.82 339.369 148.548C347.121 134.1 358.045 122.912 372.14 114.983C386.236 106.879 402.446 102.826 420.77 102.826C444.027 102.826 463.584 109.081 479.442 121.591C495.299 133.924 505.518 150.751 510.099 172.07H454.334C450.987 165.022 446.318 159.648 440.327 155.948C434.513 152.248 427.729 150.398 419.977 150.398C407.996 150.398 398.393 154.715 391.169 163.348C384.122 171.806 380.598 183.17 380.598 197.442C380.598 211.889 384.122 223.43 391.169 232.064C398.393 240.521 407.996 244.749 419.977 244.749C427.729 244.749 434.513 242.899 440.327 239.199C446.318 235.499 450.987 230.125 454.334 223.078H510.099C505.518 244.397 495.299 261.312 479.442 273.821C463.584 286.155 444.027 292.321 420.77 292.321C402.446 292.321 386.236 288.357 372.14 280.428C358.045 272.324 347.121 261.135 339.369 246.864C331.792 232.416 328.004 215.942 328.004 197.442ZM623.958 292.85C606.515 292.85 590.482 288.798 575.858 280.693C561.234 272.412 549.605 261.047 540.972 246.599C532.514 231.975 528.286 215.501 528.286 197.177C528.286 178.853 532.514 162.467 540.972 148.02C549.605 133.396 561.234 122.031 575.858 113.926C590.482 105.821 606.515 101.769 623.958 101.769C641.578 101.769 657.611 105.821 672.059 113.926C686.683 122.031 698.224 133.396 706.681 148.02C715.138 162.467 719.367 178.853 719.367 197.177C719.367 215.501 715.138 231.975 706.681 246.599C698.224 261.047 686.683 272.412 672.059 280.693C657.435 288.798 641.402 292.85 623.958 292.85ZM623.958 244.749C637.173 244.749 647.568 240.433 655.145 231.799C662.897 223.166 666.773 211.625 666.773 197.177C666.773 182.377 662.897 170.748 655.145 162.291C647.568 153.658 637.173 149.341 623.958 149.341C610.568 149.341 600.084 153.658 592.508 162.291C584.932 170.748 581.144 182.377 581.144 197.177C581.144 211.801 584.932 223.43 592.508 232.064C600.084 240.521 610.568 244.749 623.958 244.749ZM794.454 104.676V291H742.653V104.676H794.454ZM875.754 251.357H933.633V291H823.953V104.676H875.754V251.357Z" fill="url(#paint0_linear_152_183)"/>
<path d="M299.004 265.119L286.047 317.92H267.997L260.732 285.566L253.318 317.92H235.268L222.461 265.119H238.339L244.48 301.219L252.794 265.119H268.896L276.985 300.919L283.126 265.119H299.004ZM332.869 275.53C337.663 275.53 341.457 277.152 344.254 280.398C347.1 283.593 348.523 287.937 348.523 293.43V317.92H333.843V295.377C333.843 292.98 333.219 291.108 331.971 289.76C330.722 288.362 329.05 287.663 326.953 287.663C324.756 287.663 323.033 288.362 321.785 289.76C320.537 291.108 319.913 292.98 319.913 295.377V317.92H305.233V262.498H319.913V281.896C321.211 279.998 322.958 278.475 325.155 277.327C327.402 276.129 329.974 275.53 332.869 275.53ZM376.125 318.445C371.931 318.445 368.161 317.571 364.816 315.823C361.52 314.076 358.924 311.579 357.027 308.334C355.129 305.088 354.181 301.269 354.181 296.875C354.181 292.531 355.129 288.736 357.027 285.491C358.974 282.245 361.595 279.749 364.891 278.001C368.236 276.254 372.006 275.38 376.2 275.38C380.394 275.38 384.139 276.254 387.434 278.001C390.78 279.749 393.401 282.245 395.298 285.491C397.246 288.736 398.219 292.531 398.219 296.875C398.219 301.219 397.246 305.038 395.298 308.334C393.401 311.579 390.78 314.076 387.434 315.823C384.089 317.571 380.319 318.445 376.125 318.445ZM376.125 305.712C378.172 305.712 379.87 304.963 381.218 303.465C382.616 301.918 383.315 299.721 383.315 296.875C383.315 294.029 382.616 291.857 381.218 290.359C379.87 288.861 378.197 288.112 376.2 288.112C374.203 288.112 372.53 288.861 371.182 290.359C369.834 291.857 369.16 294.029 369.16 296.875C369.16 299.771 369.809 301.968 371.107 303.465C372.405 304.963 374.078 305.712 376.125 305.712ZM451.93 309.307H433.206L430.36 317.92H414.932L434.18 265.119H451.106L470.28 317.92H454.776L451.93 309.307ZM448.26 298.073L442.568 280.997L436.951 298.073H448.26ZM489.744 283.319C491.391 280.922 493.388 279.025 495.735 277.627C498.082 276.229 500.603 275.53 503.3 275.53V291.183H499.18C495.985 291.183 493.613 291.807 492.065 293.055C490.517 294.303 489.744 296.475 489.744 299.571V317.92H475.064V275.904H489.744V283.319ZM548.706 296.425C548.706 297.574 548.631 298.722 548.481 299.871H520.695C520.845 302.167 521.469 303.89 522.568 305.038C523.716 306.137 525.164 306.686 526.912 306.686C529.358 306.686 531.106 305.588 532.154 303.391H547.807C547.158 306.287 545.885 308.883 543.988 311.18C542.14 313.427 539.794 315.199 536.948 316.497C534.101 317.795 530.956 318.445 527.511 318.445C523.366 318.445 519.672 317.571 516.426 315.823C513.231 314.076 510.709 311.579 508.862 308.334C507.064 305.088 506.166 301.269 506.166 296.875C506.166 292.481 507.064 288.686 508.862 285.491C510.659 282.245 513.156 279.749 516.351 278.001C519.597 276.254 523.317 275.38 527.511 275.38C531.655 275.38 535.325 276.229 538.52 277.926C541.716 279.624 544.212 282.07 546.01 285.266C547.807 288.412 548.706 292.131 548.706 296.425ZM533.727 292.755C533.727 290.958 533.128 289.56 531.93 288.561C530.731 287.513 529.233 286.989 527.436 286.989C525.638 286.989 524.165 287.488 523.017 288.486C521.869 289.435 521.12 290.858 520.77 292.755H533.727ZM631.137 275.904L620.427 317.92H603.95L598.108 292.456L592.042 317.92H575.64L565.005 275.904H579.609L584.328 303.765L590.544 275.904H606.272L612.713 303.84L617.356 275.904H631.137ZM675.458 296.425C675.458 297.574 675.383 298.722 675.233 299.871H647.447C647.597 302.167 648.221 303.89 649.319 305.038C650.468 306.137 651.916 306.686 653.663 306.686C656.11 306.686 657.857 305.588 658.906 303.391H674.559C673.91 306.287 672.637 308.883 670.739 311.18C668.892 313.427 666.545 315.199 663.699 316.497C660.853 317.795 657.707 318.445 654.262 318.445C650.118 318.445 646.423 317.571 643.178 315.823C639.982 314.076 637.461 311.579 635.613 308.334C633.816 305.088 632.917 301.269 632.917 296.875C632.917 292.481 633.816 288.686 635.613 285.491C637.411 282.245 639.907 279.749 643.103 278.001C646.348 276.254 650.068 275.38 654.262 275.38C658.406 275.38 662.076 276.229 665.272 277.926C668.467 279.624 670.964 282.07 672.761 285.266C674.559 288.412 675.458 292.131 675.458 296.425ZM660.479 292.755C660.479 290.958 659.879 289.56 658.681 288.561C657.483 287.513 655.985 286.989 654.187 286.989C652.39 286.989 650.917 287.488 649.769 288.486C648.62 289.435 647.871 290.858 647.522 292.755H660.479ZM697.493 261.225C702.935 261.225 707.304 262.623 710.599 265.419C713.895 268.215 715.542 272.209 715.542 277.402C715.542 281.946 714.02 285.541 710.974 288.187C707.978 290.833 704.009 292.206 699.065 292.306L698.691 297.773H685.734L685.285 282.869H690.677C694.072 282.869 696.669 282.495 698.466 281.746C700.264 280.947 701.163 279.549 701.163 277.552C701.163 276.204 700.788 275.155 700.039 274.406C699.34 273.607 698.366 273.208 697.118 273.208C695.72 273.208 694.647 273.632 693.898 274.481C693.199 275.28 692.849 276.378 692.849 277.776H678.994C678.894 274.731 679.518 271.96 680.866 269.463C682.264 266.917 684.361 264.919 687.157 263.471C689.953 261.973 693.398 261.225 697.493 261.225ZM692.325 318.519C689.729 318.519 687.631 317.82 686.034 316.422C684.486 314.974 683.712 313.152 683.712 310.955C683.712 308.758 684.486 306.936 686.034 305.488C687.631 304.04 689.729 303.316 692.325 303.316C694.871 303.316 696.918 304.04 698.466 305.488C700.064 306.936 700.863 308.758 700.863 310.955C700.863 313.102 700.064 314.9 698.466 316.347C696.918 317.795 694.871 318.519 692.325 318.519Z" fill="#123524"/>
<circle cx="430.648" cy="352.008" r="5.61715" fill="url(#paint1_linear_152_183)"/>
<rect x="447.5" y="346.391" width="66.9377" height="11.2343" rx="5.61715" fill="url(#paint2_linear_152_183)"/>
<defs>
<linearGradient id="paint0_linear_152_183" x1="-224.625" y1="105.255" x2="-116.21" y2="588.854" gradientUnits="userSpaceOnUse">
<stop stop-color="#04BB84"/>
<stop offset="0.31635" stop-color="#02A99D"/>
<stop offset="1" stop-color="#FFE51C"/>
</linearGradient>
<linearGradient id="paint1_linear_152_183" x1="422.344" y1="349.377" x2="428.316" y2="360.611" gradientUnits="userSpaceOnUse">
<stop stop-color="#04BB84"/>
<stop offset="0.216346" stop-color="#02A99D"/>
<stop offset="1" stop-color="#FFE51C"/>
</linearGradient>
<linearGradient id="paint2_linear_152_183" x1="431.487" y1="349.377" x2="432.762" y2="363.672" gradientUnits="userSpaceOnUse">
<stop stop-color="#04BB84"/>
<stop offset="0.211538" stop-color="#02A99D"/>
<stop offset="1" stop-color="#FFE51C"/>
</linearGradient>
</defs>
</svg>
