<svg width="200" height="158" viewBox="0 0 200 158" fill="none" xmlns="http://www.w3.org/2000/svg">
<path d="M89.4341 48.6455C70.7482 32.2564 61.5789 17.5038 56.2823 8.68058C54.6071 5.9016 50.2307 6.43144 49.28 9.52832C46.2419 19.3606 40.8581 35.8751 26.623 56.2498C17.7099 69.0146 9.58727 87.104 11.5981 103.713C15.0291 132.053 39.8093 148.526 69.2291 144.964C98.649 141.402 118.781 119.48 115.351 91.1522C113.261 73.8887 101.136 58.9145 89.4341 48.6455Z" fill="#FFE100"/>
<path d="M77.4976 93.0429C84.0532 77.6662 81.1749 63.7455 88.0397 65.4857C97.3685 67.8693 109.385 84.4622 107.64 101.031C106.392 112.844 98.7173 120.835 87.4593 118.83C78.3694 117.214 71.5923 106.892 77.4976 93.0429Z" fill="#FFFECF"/>
<ellipse cx="41.7721" cy="88.3008" rx="9.0879" ry="11.3599" transform="rotate(-6.90298 41.7721 88.3008)" fill="#123524"/>
<ellipse cx="43.7545" cy="85.7721" rx="2.27198" ry="4.54395" transform="rotate(-6.90298 43.7545 85.7721)" fill="white"/>
<ellipse cx="82.3712" cy="83.3856" rx="9.0879" ry="11.3599" transform="rotate(-6.90298 82.3712 83.3856)" fill="#123524"/>
<ellipse cx="84.3536" cy="80.857" rx="2.27198" ry="4.54395" transform="rotate(-6.90298 84.3536 80.857)" fill="white"/>
<path d="M53.2517 107.508C53.2517 107.508 54.344 116.53 65.6215 115.165C76.899 113.799 75.8068 104.777 75.8068 104.777" stroke="#123524" stroke-width="4.54395" stroke-linecap="round" stroke-linejoin="bevel"/>
<path d="M180.929 91.8882C171.075 77.6796 167.369 66.1778 165.279 59.3304C164.616 57.1725 161.573 56.7934 160.41 58.7237C156.704 64.8491 150.29 75.09 137.251 86.4465C129.085 93.5622 120.557 104.405 119.118 115.955C116.663 135.662 130.616 150.953 151.074 153.502C171.533 156.051 188.812 144.643 191.267 124.944C192.762 112.939 187.099 100.79 180.929 91.8882Z" fill="#FFE100"/>
<path d="M165.397 119.847C172.411 110.571 172.812 100.69 177.152 103.021C183.048 106.2 188.366 119.423 184.398 130.314C181.567 138.077 175.041 142.179 167.78 138.93C161.916 136.309 159.079 128.201 165.397 119.847Z" fill="#FFFECF"/>
<ellipse cx="142.08" cy="110.631" rx="6.3223" ry="7.90287" transform="rotate(7.10175 142.08 110.631)" fill="#123524"/>
<ellipse cx="143.844" cy="109.258" rx="1.58057" ry="3.16115" transform="rotate(7.10175 143.844 109.258)" fill="white"/>
<ellipse cx="170.313" cy="114.149" rx="6.3223" ry="7.90287" transform="rotate(7.10175 170.313 114.149)" fill="#123524"/>
<ellipse cx="172.077" cy="112.776" rx="1.58057" ry="3.16115" transform="rotate(7.10175 172.077 112.776)" fill="white"/>
<path d="M146.595 125.529C146.595 125.529 145.814 131.803 153.656 132.78C161.498 133.757 162.28 127.483 162.28 127.483" stroke="#123524" stroke-width="3.16115" stroke-linecap="round" stroke-linejoin="bevel"/>
</svg>
