<svg width="1440" height="1136" viewBox="0 0 1440 1136" fill="none" xmlns="http://www.w3.org/2000/svg">
<path opacity="0.563035" fill-rule="evenodd" clip-rule="evenodd" d="M-35.6531 553.233L-39.2723 880.376L-41.8549 1113.79C-41.8549 1113.79 1130.72 892.287 859.561 781.334C588.406 670.381 816.111 542.738 693.937 478.827C571.762 414.915 112.156 625.818 24.4292 552.924C-63.2972 480.031 -35.6531 553.233 -35.6531 553.233Z" fill="#FFFECF"/>
<path fill-rule="evenodd" clip-rule="evenodd" d="M-10.3907 551.733L-4.66717 846.993L-15.9812 1057.11C-15.9812 1057.11 1070.29 872.138 795.971 769.327C521.656 666.515 692.854 556.473 588.728 501.322C484.603 446.171 90.2267 625.82 15.4573 562.924C-59.3121 500.028 -10.3907 551.733 -10.3907 551.733Z" fill="url(#paint0_linear_401_1880)"/>
<g opacity="0.240676">
<ellipse cx="7.04736" cy="13.6723" rx="7.04736" ry="13.6723" transform="matrix(0.00959048 0.999954 0.999954 -0.00959048 317.834 1011.88)" stroke="white" stroke-width="3.07171"/>
<ellipse cx="7.04736" cy="13.6723" rx="7.04736" ry="13.6723" transform="matrix(0.00959048 0.999954 0.999954 -0.00959048 180.483 947.04)" stroke="white" stroke-width="3.07171"/>
<ellipse cx="11.3621" cy="22.0432" rx="11.3621" ry="22.0432" transform="matrix(0.00959048 0.999954 0.999954 -0.00959048 22.3585 1092.39)" stroke="white" stroke-width="3.07171"/>
<ellipse cx="4.17088" cy="8.09179" rx="4.17088" ry="8.09179" transform="matrix(0.00959048 0.999954 0.999954 -0.00959048 339.655 910.994)" stroke="white" stroke-width="3.07171"/>
<rect x="0.527778" y="1.4925" width="24.6014" height="39.8326" transform="matrix(-0.63612 0.77159 0.979759 0.200182 185.179 1036.1)" stroke="white" stroke-width="3.07171"/>
<rect x="0.527778" y="1.4925" width="14.224" height="23.7435" transform="matrix(-0.63612 0.77159 0.979759 0.200182 517.187 1025.63)" stroke="white" stroke-width="3.07171"/>
<rect x="0.527778" y="1.4925" width="7.30569" height="13.0174" transform="matrix(-0.63612 0.77159 0.979759 0.200182 416.959 952.696)" stroke="white" stroke-width="3.07171"/>
<path d="M255.724 876.665L250.214 875.974L249.94 876.501L255.45 877.193L254.009 879.973L255.05 880.103L256.491 877.324L261.975 878.012L262.249 877.484L256.765 876.796L258.212 874.003L257.171 873.873L255.724 876.665Z" fill="white"/>
<path d="M473.71 1032.79L468.2 1032.1L467.926 1032.62L473.436 1033.32L471.995 1036.1L473.036 1036.23L474.477 1033.45L479.961 1034.13L480.235 1033.61L474.751 1032.92L476.198 1030.13L475.157 1030L473.71 1032.79Z" fill="white"/>
<path d="M313.119 956.362L302.564 955.037L302.04 956.048L312.595 957.373L309.834 962.698L311.828 962.948L314.589 957.623L325.095 958.942L325.619 957.931L315.113 956.612L317.886 951.263L315.892 951.013L313.119 956.362Z" fill="white"/>
<path d="M36.1545 905.653L23.0779 904.011L22.4287 905.263L35.5053 906.905L32.085 913.502L34.5557 913.812L37.976 907.215L50.9924 908.849L51.6416 907.597L38.6252 905.963L42.0613 899.335L39.5906 899.025L36.1545 905.653Z" fill="white"/>
<path d="M308.281 1116.9L287.638 1114.31L286.613 1116.29L307.257 1118.88L301.857 1129.3L305.758 1129.79L311.157 1119.37L331.705 1121.95L332.73 1119.97L312.182 1117.39L317.606 1106.93L313.706 1106.44L308.281 1116.9Z" fill="white"/>
</g>
<path opacity="0.563035" fill-rule="evenodd" clip-rule="evenodd" d="M742.003 1.12796H1597.14V951.452C1597.14 951.452 1637.1 1143.7 1444.64 871.329C1252.18 598.956 1039.54 829.819 929.226 707.231C818.916 584.642 1168.9 119.113 1043.93 31.3502C918.958 -56.4124 742.003 1.12796 742.003 1.12796Z" fill="#FFFECF"/>
<path fill-rule="evenodd" clip-rule="evenodd" d="M804.12 -0.83616H1541.87L1541.89 902.028C1541.89 902.028 1601.97 1082.96 1423.25 807.318C1244.54 531.68 1060.81 705.389 965.643 600.917C870.475 496.444 1168.55 96.9986 1060.73 22.2058C952.915 -52.587 804.12 -0.83616 804.12 -0.83616Z" fill="url(#paint1_linear_401_1880)"/>
<g opacity="0.240676">
<ellipse cx="1319.64" cy="377.205" rx="12.4744" ry="15.6761" stroke="white" stroke-width="8"/>
<ellipse cx="1202.53" cy="220.443" rx="12.4744" ry="15.6761" stroke="white" stroke-width="8"/>
<ellipse cx="1136.34" cy="396.933" rx="7.38279" ry="9.2777" stroke="white" stroke-width="8"/>
<rect x="4.76948" y="1.88459" width="34.6932" height="42.6645" transform="matrix(0.878235 -0.47823 0.314135 0.949378 1346.39 212.244)" stroke="white" stroke-width="8"/>
<rect x="4.76948" y="1.88459" width="18.6832" height="23.6653" transform="matrix(0.878235 -0.47823 0.314135 0.949378 1333.49 593.008)" stroke="white" stroke-width="8"/>
<rect x="4.76948" y="1.88459" width="8.00993" height="10.9992" transform="matrix(0.878235 -0.47823 0.314135 0.949378 1202.69 478.898)" stroke="white" stroke-width="8"/>
<path d="M1066.77 291.805L1065.46 285.496L1066.38 285.177L1067.7 291.486L1072.6 289.803L1072.85 290.995L1067.95 292.678L1069.26 298.958L1068.33 299.278L1067.02 292.997L1062.1 294.688L1061.86 293.496L1066.77 291.805Z" fill="white"/>
<path d="M1346.81 540.01L1345.49 533.701L1346.42 533.382L1347.74 539.691L1352.64 538.008L1352.88 539.2L1347.99 540.883L1349.3 547.163L1348.37 547.483L1347.06 541.203L1342.14 542.893L1341.89 541.701L1346.81 540.01Z" fill="white"/>
<path d="M1208.81 356.733L1206.29 344.647L1208.07 344.035L1210.59 356.121L1219.97 352.897L1220.45 355.181L1211.07 358.405L1213.58 370.435L1211.8 371.047L1209.29 359.016L1199.87 362.255L1199.39 359.971L1208.81 356.733Z" fill="white"/>
<path d="M1114.35 39.7498L1111.23 24.7754L1113.43 24.0173L1116.56 38.9917L1128.18 34.9978L1128.77 37.8271L1117.15 41.821L1120.26 56.7264L1118.06 57.4845L1114.94 42.5791L1103.27 46.5915L1102.68 43.7622L1114.35 39.7498Z" fill="white"/>
</g>
<defs>
<linearGradient id="paint0_linear_401_1880" x1="-1385.55" y1="871.263" x2="-958.879" y2="-121.287" gradientUnits="userSpaceOnUse">
<stop stop-color="#00BCD4"/>
<stop offset="1" stop-color="#FFFECF"/>
</linearGradient>
<linearGradient id="paint1_linear_401_1880" x1="1560.56" y1="-1393.62" x2="269.281" y2="-435.918" gradientUnits="userSpaceOnUse">
<stop stop-color="#00BCD4"/>
<stop offset="1" stop-color="#FFFECF"/>
</linearGradient>
</defs>
</svg>
