<svg width="2308" height="835" viewBox="0 0 2308 835" fill="none" xmlns="http://www.w3.org/2000/svg">
<path opacity="0.563035" fill-rule="evenodd" clip-rule="evenodd" d="M2307.99 816.66H18.3957V63.0796C18.3957 63.0796 -88.5984 -89.3691 426.711 126.615C942.021 342.599 1511.36 159.531 1806.71 256.74C2102.06 353.949 1164.98 723.102 1499.59 792.695C1834.2 862.288 2307.99 816.66 2307.99 816.66Z" fill="#FFFECF"/>
<path fill-rule="evenodd" clip-rule="evenodd" d="M2141.68 818.218H166.363L166.329 102.271C166.329 102.271 5.46475 -41.2003 483.966 177.373C962.468 395.947 1454.39 258.201 1709.2 341.044C1964.01 423.888 1165.92 740.637 1454.6 799.946C1743.28 859.255 2141.68 818.218 2141.68 818.218Z" fill="url(#paint0_linear_414_977)"/>
<g opacity="0.240676">
<ellipse cx="286.381" cy="242.93" rx="7.69013" ry="5.91774" transform="rotate(180 286.381 242.93)" stroke="white" stroke-width="9.67213"/>
<ellipse cx="358.575" cy="302.107" rx="7.69013" ry="5.91774" transform="rotate(180 358.575 302.107)" stroke="white" stroke-width="9.67213"/>
<ellipse cx="196.925" cy="367.525" rx="12.3984" ry="9.54084" transform="rotate(180 196.925 367.525)" stroke="white" stroke-width="9.67213"/>
<ellipse cx="399.379" cy="235.483" rx="4.5513" ry="3.50234" transform="rotate(180 399.379 235.483)" stroke="white" stroke-width="9.67213"/>
<rect x="-6.88674" y="-2.72488" width="14.6935" height="10.9669" transform="matrix(-0.948651 0.316326 -0.475387 -0.879777 255.172 303.156)" stroke="white" stroke-width="9.67213"/>
<rect x="-4.59229" y="-1.81704" width="8.77883" height="6.44968" transform="matrix(-0.948651 0.316326 -0.475387 -0.879777 268.024 160.399)" stroke="white" stroke-width="6.44968"/>
<rect x="-2.75538" y="-1.09022" width="5.2673" height="3.86981" transform="matrix(-0.948651 0.316326 -0.475387 -0.879777 352.582 204.26)" stroke="white" stroke-width="3.86981"/>
<path d="M442.267 275.168L443.079 277.55L442.506 277.67L441.694 275.289L438.676 275.924L438.522 275.474L441.54 274.839L440.732 272.468L441.304 272.347L442.113 274.718L445.145 274.08L445.299 274.53L442.267 275.168Z" fill="white"/>
<path d="M269.631 181.471L270.443 183.853L269.87 183.973L269.058 181.592L266.04 182.227L265.887 181.777L268.905 181.142L268.096 178.771L268.669 178.65L269.477 181.021L272.509 180.383L272.663 180.833L269.631 181.471Z" fill="white"/>
<path d="M354.704 250.658L356.26 255.221L355.163 255.452L353.607 250.889L347.826 252.106L347.532 251.244L353.313 250.027L351.764 245.486L352.861 245.255L354.41 249.796L360.218 248.574L360.512 249.436L354.704 250.658Z" fill="white"/>
<path d="M412.934 370.32L414.862 375.972L413.502 376.259L411.574 370.606L404.411 372.113L404.047 371.045L411.21 369.538L409.291 363.911L410.65 363.625L412.569 369.252L419.765 367.737L420.13 368.805L412.934 370.32Z" fill="white"/>
<path d="M179.578 253.418L182.622 262.342L180.476 262.794L177.432 253.87L166.124 256.25L165.549 254.564L176.857 252.184L173.827 243.301L175.973 242.849L179.003 251.732L190.363 249.341L190.938 251.027L179.578 253.418Z" fill="white"/>
</g>
<defs>
<linearGradient id="paint0_linear_414_977" x1="116.325" y1="1922.66" x2="853.363" y2="76.939" gradientUnits="userSpaceOnUse">
<stop stop-color="#00BCD4"/>
<stop offset="1" stop-color="#FFFECF"/>
</linearGradient>
</defs>
</svg>
