<svg width="168" height="187" viewBox="0 0 168 187" fill="none" xmlns="http://www.w3.org/2000/svg">
<path d="M52.4008 168.481C57.1299 165.154 68.6064 167.008 68.6064 167.008C68.6064 167.008 68.35 155.331 68.6064 147.856C68.8832 139.785 70.0796 127.231 70.0796 127.231L81.8655 131.65C81.8655 131.65 79.2015 142.336 78.919 149.329C78.6395 156.251 80.3923 167.008 80.3923 167.008C80.3923 167.008 88.5866 179.116 83.3387 181.74C80.3923 183.213 52.4008 189.106 47.9811 184.687C43.2194 179.925 46.8931 172.356 52.4008 168.481Z" fill="#04BB84"/>
<path d="M134.46 168.481C129.731 165.154 118.255 167.008 118.255 167.008C118.255 167.008 118.511 155.331 118.255 147.856C117.978 139.785 116.782 127.231 116.782 127.231L104.996 131.65C104.996 131.65 107.66 142.336 107.942 149.329C108.222 156.251 106.469 167.008 106.469 167.008C106.469 167.008 98.2746 179.116 103.522 181.74C106.469 183.213 134.46 189.106 138.88 184.687C143.642 179.925 139.968 172.356 134.46 168.481Z" fill="#04BB84"/>
<path d="M29.1797 60.9314L25.8404 68.7231C25.8404 68.7231 30.1748 76.676 34.7452 79.8542C39.9415 83.4676 50.3287 84.3066 50.3287 84.3066V93.2114C50.3287 93.2114 36.1218 91.712 29.1797 86.5328C23.4653 82.2695 18.0487 72.0624 18.0487 72.0624C18.0487 72.0624 12.3954 71.2503 10.2569 68.7231C8.48109 66.6244 8.03074 62.0445 8.03074 62.0445C8.03074 62.0445 -1.6255 57.3677 0.239014 53.1397C0.983169 51.4522 1.82089 50.3596 3.57832 49.8004C6.29255 48.9368 9.58844 53.3188 10.1679 54.1265C9.45838 53.1134 4.77504 46.2938 5.80452 44.2349C6.67391 42.4961 7.19983 42.0087 9.14384 42.0087C11.9397 42.0087 14.2966 45.9588 15.6635 48.8982C15.0799 46.9914 14.7319 44.6379 15.8224 43.1218C17.4238 40.8955 18.0455 40.8955 19.1534 40.8955H19.1618C24.5386 40.8955 24.7273 54.2528 24.7273 54.2528C24.7273 54.2528 27.5094 49.7843 30.2928 49.8004C31.6674 49.8083 32.5298 50.0922 33.6321 50.9135C37.0653 53.4713 29.1797 60.9314 29.1797 60.9314Z" fill="#04BB84"/>
<path d="M125.131 45.8798C108.55 27.3637 101.221 11.616 97.0229 2.22013C95.6938 -0.740045 91.2854 -0.740045 89.9695 2.22013C85.7717 11.616 78.442 27.3637 61.8613 45.8798C51.4787 57.4808 41.2408 74.4629 41.2408 91.1933C41.2408 119.74 63.8615 139.072 93.4962 139.072C123.131 139.072 145.752 119.728 145.752 91.1933C145.752 73.8037 135.514 57.4808 125.131 45.8798Z" fill="#FFE100"/>
<path d="M107.945 88.5207C116.301 74.0434 115.117 59.8776 121.723 62.4303C130.697 65.9178 140.633 83.8347 136.909 100.074C134.25 111.651 125.671 118.662 114.735 115.318C105.905 112.622 100.418 101.56 107.945 88.5207Z" fill="#FFFECF"/>
<ellipse cx="73.0484" cy="79.5191" rx="9.0879" ry="11.3599" fill="#123524"/>
<ellipse cx="75.3204" cy="77.2472" rx="2.27198" ry="4.54395" fill="white"/>
<ellipse cx="113.944" cy="79.5191" rx="9.0879" ry="11.3599" fill="#123524"/>
<ellipse cx="116.216" cy="77.2472" rx="2.27198" ry="4.54395" fill="white"/>
<path d="M82.1363 99.9669C82.1363 99.9669 82.1363 109.055 93.4962 109.055C104.856 109.055 104.856 99.9669 104.856 99.9669" stroke="#123524" stroke-width="4.54395" stroke-linecap="round" stroke-linejoin="bevel"/>
<path d="M136.53 114.983C140.774 112.476 149.12 114.101 149.12 114.101C149.12 114.101 149.835 113.163 150.505 113.031C150.979 112.938 151.733 113.188 151.733 113.188C151.733 113.188 156.088 106.885 155.604 102.455C154.889 95.9208 143.36 90.9044 143.36 90.9044L144.619 81.0843C144.619 81.0843 155.037 87.4105 159.475 91.7224C163.913 96.0344 165.33 99.0426 165.267 104.942C165.19 112.077 155.856 119.955 155.856 119.955C155.856 119.955 157.744 125.777 155.982 128.705C154.185 131.691 147.988 132.671 147.988 132.671L147.83 133.899C147.83 133.899 149.538 135.372 149.971 136.668C151.277 140.586 142.815 141.778 139.678 139.092C136.719 136.558 143.296 127.591 139.71 129.115C137.314 130.132 139.065 135.108 136.468 134.938C134.729 134.823 133.927 133.544 133.1 132.011C131.477 129.003 138.401 121.889 135.429 123.575C133.549 124.642 134.505 128.096 132.345 128.171C129.744 128.26 130.274 124.29 130.676 121.718C131.215 118.275 133.53 116.755 136.53 114.983Z" fill="#04BB84"/>
</svg>
