<svg width="331" height="235" viewBox="0 0 331 235" fill="none" xmlns="http://www.w3.org/2000/svg">
<path d="M254.829 184.16C250.135 180.784 238.639 182.518 238.639 182.518C238.639 182.518 239.018 170.844 238.839 163.367C238.647 155.294 237.581 142.728 237.581 142.728L225.75 147.024C225.75 147.024 228.302 157.737 228.512 164.733C228.719 171.657 226.854 182.395 226.854 182.395C226.854 182.395 218.534 194.417 223.754 197.096C226.685 198.6 254.613 204.784 259.079 200.411C263.89 195.699 260.296 188.092 254.829 184.16Z" fill="#04BB84"/>
<path d="M181.362 65.9275L176.43 72.8222C176.43 72.8222 178.959 81.5193 182.741 85.6035C187.042 90.247 197.008 93.2933 197.008 93.2933L195.099 101.991C195.099 101.991 181.544 97.4807 175.873 90.9336C171.206 85.5443 168.103 74.4133 168.103 74.4133C168.103 74.4133 162.756 72.4081 161.209 69.4812C159.924 67.0505 160.466 62.4806 160.466 62.4806C160.466 62.4806 152.037 55.8423 154.765 52.1123C155.853 50.6237 156.906 49.736 158.742 49.5666C161.579 49.305 163.858 54.2917 164.251 55.2049C163.775 54.0633 160.663 46.3982 162.11 44.6078C163.332 43.0958 163.95 42.7325 165.849 43.1493C168.58 43.7487 170.035 48.1123 170.74 51.2764C170.579 49.2888 170.743 46.9154 172.134 45.6683C174.175 43.8372 174.782 43.9705 175.864 44.208L175.873 44.2098C181.124 45.3626 178.445 58.4497 178.445 58.4497C178.445 58.4497 182.12 54.6815 184.836 55.294C186.177 55.5964 186.958 56.0586 187.859 57.0971C190.664 60.3315 181.362 65.9275 181.362 65.9275Z" fill="#04BB84"/>
<path d="M278.309 71.7971C266.084 50.1568 262.301 33.2039 260.215 23.1265C259.551 19.9502 255.246 19.0051 253.326 21.6143C247.211 29.8917 236.676 43.7018 216.511 58.2326C203.882 67.3379 190.242 81.7302 186.655 98.0716C180.534 125.955 198.485 149.686 227.43 156.04C256.376 162.393 282.618 148.35 288.735 120.478C292.464 103.493 285.963 85.3543 278.309 71.7971Z" fill="#FFE100"/>
<path d="M252.381 109.762C263.647 97.4128 265.527 83.3225 271.432 87.2321C279.45 92.5626 285.313 112.193 278.194 127.256C273.116 137.994 263.232 143.002 253.268 137.392C245.222 132.865 242.233 120.884 252.381 109.762Z" fill="#FFFECF"/>
<ellipse cx="220.226" cy="93.4882" rx="9.0879" ry="11.3599" transform="rotate(12.3799 220.226 93.4882)" fill="#123524"/>
<ellipse cx="222.932" cy="91.7561" rx="2.27198" ry="4.54395" transform="rotate(12.3799 222.932 91.7561)" fill="white"/>
<ellipse cx="260.17" cy="102.256" rx="9.0879" ry="11.3599" transform="rotate(12.3799 260.17 102.256)" fill="#123524"/>
<ellipse cx="262.876" cy="100.524" rx="2.27198" ry="4.54395" transform="rotate(12.3799 262.876 100.524)" fill="white"/>
<path d="M224.718 115.409C224.718 115.409 222.77 124.285 233.866 126.721C244.961 129.156 246.91 120.28 246.91 120.28" stroke="#123524" stroke-width="4.54395" stroke-linecap="round" stroke-linejoin="bevel"/>
<path d="M274.628 141.737C279.311 140.198 287.115 143.575 287.115 143.575C287.115 143.575 288.013 142.812 288.697 142.827C289.18 142.837 289.862 143.244 289.862 143.244C289.862 143.244 295.468 138.021 295.944 133.59C296.647 127.054 286.461 119.683 286.461 119.683L289.796 110.361C289.796 110.361 298.616 118.774 302.026 123.937C305.437 129.1 306.176 132.342 304.849 138.09C303.245 145.044 292.439 150.737 292.439 150.737C292.439 150.737 293.035 156.829 290.686 159.311C288.29 161.842 282.027 161.471 282.027 161.471L281.61 162.636C281.61 162.636 282.962 164.441 283.107 165.8C283.543 169.906 275.022 169.257 272.534 165.961C270.187 162.851 278.533 155.503 274.704 156.222C272.146 156.703 272.789 161.938 270.289 161.215C268.615 160.73 268.107 159.309 267.627 157.634C266.687 154.348 274.975 148.884 271.71 149.894C269.646 150.532 269.838 154.112 267.713 153.721C265.153 153.251 266.522 149.486 267.466 147.061C268.731 143.813 271.318 142.825 274.628 141.737Z" fill="#04BB84"/>
<path d="M191.366 150.16C182.813 138.728 179.22 129.16 177.172 123.455C176.524 121.658 174.127 121.558 173.337 123.295C170.82 128.809 166.442 138.044 156.965 148.722C151.03 155.413 145.04 165.319 144.623 175.307C143.911 192.35 155.728 204.405 171.841 205.078C187.954 205.752 200.736 194.717 201.448 177.681C201.882 167.299 196.722 157.322 191.366 150.16Z" fill="#FFE100"/>
<path d="M179.287 174.629C189.876 174.254 184.789 161.113 187.529 162.847C191.25 165.213 194.24 174.723 191.273 182.411C189.157 187.892 184.767 190.701 180.16 188.262C176.44 186.294 168.699 175.003 179.287 174.629Z" fill="#FFFECF"/>
<path d="M182.809 165.591C182.383 169.101 179.191 171.601 175.681 171.175C172.171 170.749 169.671 167.557 170.097 164.047C170.523 160.537 173.715 158.037 177.225 158.463C180.735 158.889 183.235 162.081 182.809 165.591Z" fill="#FFFECF"/>
<path d="M42.7368 198.585L29.304 179.465L27.654 179.662L30.0863 200.091L14.6855 201.925L8.09031 146.529L32.37 143.639C36.8226 143.108 40.6878 143.445 43.9655 144.649C47.237 145.8 49.8206 147.644 51.7164 150.181C53.606 152.665 54.7503 155.584 55.1495 158.936C55.5985 162.708 54.9469 166.159 53.1946 169.289C51.4884 172.361 48.7164 174.737 44.8787 176.416L59.9448 196.536L42.7368 198.585ZM26.4004 169.133L34.0222 168.225C36.1175 167.976 37.6298 167.291 38.559 166.171C39.4881 165.051 39.8405 163.548 39.6159 161.662C39.4039 159.881 38.6886 158.558 37.4701 157.694C36.2977 156.771 34.69 156.431 32.647 156.675L25.0252 157.582L26.4004 169.133ZM106.066 168.175C106.209 169.379 106.274 170.594 106.26 171.817L77.1087 175.288C77.5528 177.679 78.4227 179.408 79.7186 180.476C81.0606 181.485 82.6484 181.88 84.4818 181.662C87.0486 181.356 88.7448 179.985 89.5704 177.549L105.993 175.594C105.673 178.714 104.662 181.597 102.958 184.243C101.301 186.831 99.06 188.984 96.2363 190.701C93.4126 192.419 90.1936 193.493 86.5791 193.923C82.2313 194.441 78.2458 193.985 74.6226 192.557C71.0517 191.123 68.0946 188.819 65.751 185.645C63.4598 182.464 62.0398 178.569 61.491 173.96C60.9422 169.35 61.4111 165.256 62.8977 161.679C64.3782 158.05 66.6855 155.119 69.8198 152.886C73.0064 150.648 76.7998 149.266 81.2 148.742C85.5478 148.225 89.504 148.657 93.0686 150.039C96.6332 151.421 99.558 153.676 101.843 156.804C104.122 159.879 105.529 163.67 106.066 168.175ZM89.8921 166.195C89.6676 164.31 88.8644 162.918 87.4824 162.02C86.0942 161.069 84.4573 160.706 82.5715 160.931C80.6857 161.155 79.2027 161.863 78.1226 163.054C77.0363 164.193 76.4283 165.78 76.2986 167.814L89.8921 166.195Z" fill="#04BB84"/>
<path d="M208.9 151.997C206.169 151.736 204.034 150.79 202.494 149.159C201.012 147.481 200.378 145.513 200.594 143.254C200.815 140.944 201.812 139.105 203.586 137.738C205.412 136.375 207.69 135.825 210.421 136.086C213.099 136.341 215.179 137.309 216.662 138.987C218.197 140.671 218.854 142.668 218.633 144.978C218.417 147.236 217.396 149.047 215.57 150.409C213.802 151.724 211.578 152.253 208.9 151.997ZM216.149 156.824L211.926 201.014L196.487 199.539L200.71 155.348L216.149 156.824Z" fill="#04BB84"/>
<path d="M148.054 162.975L136.959 171.006L164.004 175.346L168.346 148.288L159.154 154.941C155.979 150.55 151.573 147.2 146.495 145.314C141.416 143.429 135.892 143.092 130.622 144.347C125.351 145.602 120.571 148.392 116.885 152.365C113.2 156.338 110.774 161.315 109.915 166.667C109.057 172.018 109.803 177.504 112.061 182.431C114.318 187.357 117.986 191.503 122.599 194.344C127.212 197.185 132.563 198.594 137.977 198.392C143.391 198.19 148.623 196.386 153.013 193.209L148.999 187.657L144.985 182.106C142.79 183.694 140.174 184.596 137.467 184.697C134.76 184.798 132.084 184.094 129.778 182.673C127.471 181.253 125.637 179.18 124.509 176.717C123.38 174.253 123.006 171.51 123.436 168.834C123.865 166.159 125.078 163.67 126.921 161.684C128.764 159.697 131.154 158.302 133.789 157.675C136.424 157.047 139.186 157.215 141.725 158.158C144.265 159.101 146.467 160.78 148.054 162.975Z" fill="url(#paint0_linear_333_1036)"/>
<defs>
<linearGradient id="paint0_linear_333_1036" x1="141.302" y1="143.948" x2="132.618" y2="198.065" gradientUnits="userSpaceOnUse">
<stop stop-color="#04BB84"/>
<stop offset="1" stop-color="#FFE100"/>
</linearGradient>
</defs>
</svg>
