<svg width="158" height="83" viewBox="0 0 158 83" fill="none" xmlns="http://www.w3.org/2000/svg">
<path d="M121.145 29.1539C115.73 21.9173 113.456 15.8602 112.159 12.2487C111.749 11.1108 110.231 11.0474 109.731 12.1473C108.138 15.638 105.367 21.4844 99.3671 28.244C95.6101 32.4793 91.818 38.7503 91.5538 45.0735C91.1031 55.8628 98.584 63.4941 108.784 63.9203C118.985 64.3465 127.077 57.3612 127.527 46.5764C127.802 40.0041 124.535 33.6877 121.145 29.1539Z" fill="#FFE100"/>
<path d="M113.498 44.6442C120.201 44.4071 116.981 36.0878 118.716 37.1859C121.071 38.6837 122.964 44.7039 121.086 49.5707C119.746 53.0402 116.967 54.8185 114.051 53.2745C111.695 52.0288 106.795 44.8813 113.498 44.6442Z" fill="#FFFECF"/>
<path d="M115.728 38.9227C115.458 41.1448 113.437 42.7275 111.215 42.4576C108.993 42.1877 107.41 40.1675 107.68 37.9453C107.95 35.7231 109.97 34.1405 112.193 34.4104C114.415 34.6803 115.997 36.7005 115.728 38.9227Z" fill="#FFFECF"/>
<path d="M27.0457 59.7346L18.5421 47.6308L17.4975 47.7552L19.0372 60.6881L9.28778 61.8488L5.11266 26.7806L20.483 24.9507C23.3017 24.6151 25.7485 24.8283 27.8235 25.5902C29.8945 26.3189 31.5301 27.4863 32.7303 29.0922C33.9264 30.665 34.6509 32.5126 34.9036 34.6349C35.1878 37.0225 34.7753 39.2072 33.666 41.189C32.5859 43.1337 30.8311 44.6375 28.4017 45.7002L37.9392 58.4377L27.0457 59.7346ZM16.7039 41.0897L21.5289 40.5153C22.8553 40.3573 23.8127 39.9239 24.4009 39.2148C24.9891 38.5058 25.2122 37.5544 25.07 36.3606C24.9358 35.2331 24.483 34.3958 23.7116 33.8486C22.9694 33.2643 21.9516 33.0492 20.6583 33.2032L15.8333 33.7776L16.7039 41.0897ZM67.136 40.4833C67.2269 41.246 67.2679 42.0146 67.2592 42.7892L48.8049 44.9863C49.086 46.4999 49.6367 47.5946 50.4571 48.2704C51.3067 48.9092 52.3118 49.1595 53.4724 49.0213C55.0973 48.8278 56.1711 47.9601 56.6938 46.4181L67.0899 45.1803C66.8878 47.155 66.2475 48.9801 65.169 50.6555C64.1196 52.2939 62.7012 53.6567 60.9137 54.7439C59.1261 55.8312 57.0883 56.511 54.8001 56.7834C52.0477 57.1111 49.5247 56.8229 47.231 55.9189C44.9705 55.0109 43.0985 53.5522 41.6149 51.5428C40.1644 49.5295 39.2655 47.0637 38.9181 44.1455C38.5706 41.2273 38.8675 38.636 39.8086 36.3715C40.7458 34.0739 42.2065 32.2184 44.1906 30.8051C46.2079 29.3878 48.6093 28.5133 51.3949 28.1817C54.1473 27.854 56.6518 28.1276 58.9083 29.0024C61.1649 29.8772 63.0164 31.3047 64.4629 33.2849C65.9055 35.2319 66.7965 37.6314 67.136 40.4833ZM56.8974 39.2303C56.7553 38.0365 56.2468 37.1554 55.372 36.5869C54.4932 35.9853 53.4569 35.7555 52.2631 35.8976C51.0693 36.0398 50.1305 36.4879 49.4468 37.2419C48.7591 37.9628 48.3742 38.9671 48.292 40.2549L56.8974 39.2303Z" fill="#04BB84"/>
<path d="M132.252 30.242C130.523 30.0768 129.171 29.478 128.196 28.4455C127.258 27.3829 126.857 26.1369 126.994 24.7074C127.133 23.2446 127.765 22.0805 128.887 21.2149C130.043 20.3525 131.486 20.0039 133.214 20.1691C134.91 20.3311 136.227 20.9434 137.165 22.006C138.137 23.0717 138.553 24.336 138.413 25.7987C138.276 27.2282 137.63 28.3742 136.474 29.2366C135.355 30.0689 133.947 30.4041 132.252 30.242ZM136.841 33.2973L134.167 61.2723L124.394 60.3383L127.067 32.3633L136.841 33.2973ZM153.034 25.8373L149.507 62.7383L139.733 61.8042L143.26 24.9032L153.034 25.8373Z" fill="#04BB84"/>
<path d="M93.7262 37.2669L86.7023 42.3509L103.823 45.0983L106.572 27.9689L100.753 32.181C98.7425 29.4013 95.9537 27.2804 92.7387 26.0866C89.5236 24.8928 86.0268 24.6796 82.6904 25.4741C79.354 26.2687 76.3278 28.0351 73.9946 30.5501C71.6613 33.0652 70.1258 36.2158 69.5821 39.6037C69.0385 42.9915 69.5111 46.4644 70.9403 49.5832C72.3695 52.702 74.691 55.3266 77.6113 57.1251C80.5317 58.9236 83.9196 59.8153 87.3467 59.6874C90.7738 59.5594 94.0863 58.4176 96.8651 56.4063L94.3239 52.8919L91.7828 49.3774C90.3934 50.383 88.7372 50.9539 87.0236 51.0179C85.31 51.0819 83.6161 50.636 82.1559 49.7368C80.6958 48.8375 79.535 47.5252 78.8204 45.9658C78.1058 44.4064 77.8695 42.67 78.1413 40.976C78.4131 39.2821 79.1809 37.7068 80.3475 36.4493C81.5141 35.1918 83.0272 34.3086 84.6954 33.9113C86.3637 33.514 88.1121 33.6206 89.7196 34.2175C91.3271 34.8144 92.7212 35.877 93.7262 37.2669Z" fill="url(#paint0_linear_130_1025)"/>
<defs>
<linearGradient id="paint0_linear_130_1025" x1="89.4514" y1="25.2215" x2="83.9538" y2="59.4804" gradientUnits="userSpaceOnUse">
<stop stop-color="#04BB84"/>
<stop offset="1" stop-color="#FFE100"/>
</linearGradient>
</defs>
</svg>
