<svg width="51" height="51" viewBox="0 0 51 51" fill="none" xmlns="http://www.w3.org/2000/svg">
<rect x="0.180851" y="0.181217" width="50.6383" height="50.6383" rx="25.3191" fill="#02A99D" fill-opacity="0.1"/>
<rect x="0.180851" y="0.181217" width="50.6383" height="50.6383" rx="25.3191" stroke="#02A99D" stroke-width="0.361702"/>
<path d="M17.7112 39.4068C18.6384 38.7545 20.8884 39.1179 20.8884 39.1179C20.8884 39.1179 20.8381 36.8286 20.8884 35.3631C20.9427 33.7808 21.1772 31.3193 21.1772 31.3193L23.4879 32.1858C23.4879 32.1858 22.9656 34.2808 22.9103 35.6519C22.8555 37.0091 23.1991 39.1179 23.1991 39.1179C23.1991 39.1179 24.8056 41.4919 23.7768 42.0063C23.1991 42.2951 17.7112 43.4505 16.8447 42.584C15.9111 41.6504 16.6314 40.1664 17.7112 39.4068Z" fill="#04BB84"/>
<path d="M33.7995 39.4068C32.8724 38.7545 30.6223 39.1179 30.6223 39.1179C30.6223 39.1179 30.6726 36.8286 30.6223 35.3631C30.5681 33.7808 30.3335 31.3193 30.3335 31.3193L28.0228 32.1858C28.0228 32.1858 28.5451 34.2808 28.6005 35.6519C28.6553 37.0091 28.3116 39.1179 28.3116 39.1179C28.3116 39.1179 26.7051 41.4919 27.734 42.0063C28.3116 42.2951 33.7995 43.4505 34.6661 42.584C35.5996 41.6504 34.8794 40.1664 33.7995 39.4068Z" fill="#04BB84"/>
<path d="M13.1584 18.321L12.5037 19.8486C12.5037 19.8486 13.3535 21.4078 14.2495 22.0309C15.2683 22.7394 17.3048 22.9038 17.3048 22.9038V24.6497C17.3048 24.6497 14.5194 24.3557 13.1584 23.3403C12.038 22.5045 10.9761 20.5033 10.9761 20.5033C10.9761 20.5033 9.86769 20.3441 9.44844 19.8486C9.10027 19.4371 9.01198 18.5392 9.01198 18.5392C9.01198 18.5392 7.11881 17.6223 7.48436 16.7934C7.63026 16.4625 7.7945 16.2483 8.13905 16.1387C8.67119 15.9694 9.31738 16.8285 9.43098 16.9868C9.29188 16.7882 8.37368 15.4512 8.57551 15.0475C8.74596 14.7066 8.84907 14.6111 9.23021 14.6111C9.77835 14.6111 10.2404 15.3855 10.5084 15.9618C10.394 15.588 10.3258 15.1265 10.5396 14.8293C10.8535 14.3928 10.9754 14.3928 11.1926 14.3928H11.1943C12.2485 14.3928 12.2854 17.0116 12.2854 17.0116C12.2854 17.0116 12.8309 16.1355 13.3766 16.1387C13.6461 16.1402 13.8152 16.1959 14.0313 16.3569C14.7044 16.8584 13.1584 18.321 13.1584 18.321Z" fill="#04BB84"/>
<path d="M31.9707 15.37C28.7199 11.7398 27.2829 8.65239 26.4599 6.81027C26.1993 6.22991 25.335 6.22991 25.077 6.81027C24.254 8.65239 22.817 11.7398 19.5662 15.37C17.5306 17.6445 15.5234 20.9739 15.5234 24.254C15.5234 29.8509 19.9584 33.6409 25.7685 33.6409C31.5785 33.6409 36.0135 29.8486 36.0135 24.254C36.0135 20.8447 34.0063 17.6445 31.9707 15.37Z" fill="#FFE100"/>
<path d="M28.6008 23.73C30.2391 20.8917 30.0069 18.1144 31.302 18.6149C33.0615 19.2986 35.0094 22.8113 34.2793 25.9951C33.7581 28.2649 32.076 29.6394 29.9321 28.9838C28.2009 28.4552 27.1251 26.2865 28.6008 23.73Z" fill="#FFFECF"/>
<ellipse cx="21.7593" cy="21.9652" rx="1.78174" ry="2.22718" fill="#123524"/>
<ellipse cx="22.2052" cy="21.5198" rx="0.445436" ry="0.890871" fill="white"/>
<ellipse cx="29.7769" cy="21.9652" rx="1.78174" ry="2.22718" fill="#123524"/>
<ellipse cx="30.2218" cy="21.5198" rx="0.445436" ry="0.890871" fill="white"/>
<path d="M23.541 25.9742C23.541 25.9742 23.541 27.756 25.7682 27.756C27.9954 27.756 27.9954 25.9742 27.9954 25.9742" stroke="#123524" stroke-width="0.890871" stroke-linecap="round" stroke-linejoin="bevel"/>
<path d="M34.2054 28.9181C35.0374 28.4267 36.6737 28.7453 36.6737 28.7453C36.6737 28.7453 36.8137 28.5613 36.9452 28.5355C37.0382 28.5172 37.1859 28.5663 37.1859 28.5663C37.1859 28.5663 38.0398 27.3305 37.9448 26.4621C37.8047 25.1809 35.5443 24.1974 35.5443 24.1974L35.7911 22.2721C35.7911 22.2721 37.8337 23.5124 38.7038 24.3578C39.5739 25.2032 39.8517 25.793 39.8393 26.9495C39.8243 28.3485 37.9943 29.893 37.9943 29.893C37.9943 29.893 38.3645 31.0345 38.019 31.6085C37.6667 32.194 36.4516 32.3861 36.4516 32.3861L36.4208 32.6267C36.4208 32.6267 36.7556 32.9155 36.8404 33.1698C37.0965 33.9377 35.4375 34.1715 34.8225 33.645C34.2422 33.1481 35.5318 31.3901 34.8287 31.6888C34.359 31.8883 34.7023 32.8639 34.1931 32.8304C33.8522 32.808 33.695 32.5572 33.5328 32.2565C33.2147 31.6669 34.5722 30.2722 33.9894 30.6028C33.6209 30.8118 33.8082 31.4892 33.3847 31.5037C32.8747 31.5212 32.9788 30.7428 33.0576 30.2387C33.1632 29.5636 33.6171 29.2656 34.2054 28.9181Z" fill="#04BB84"/>
</svg>
