<svg width="77" height="77" viewBox="0 0 77 77" fill="none" xmlns="http://www.w3.org/2000/svg">
<rect width="76.9231" height="76.9231" rx="38.4615" fill="#02A99D"/>
<circle opacity="0.3" cx="38.8457" cy="38.0769" r="35" fill="#D9D9D9"/>
<path d="M23.0771 20.8158C23.0771 19.515 24.1307 18.4614 25.4301 18.4614H42.6917L52.4996 26.7003V55.3375C52.4996 56.6369 51.446 57.6904 50.1453 57.6904H25.4301C24.1307 57.6904 23.0771 56.6369 23.0771 55.3375V20.8158Z" fill="white"/>
<path d="M42.6914 18.4614V24.3459C42.6914 25.6467 43.745 26.7003 45.0458 26.7003H52.4994L42.6914 18.4614Z" fill="#F0F1F1"/>
<path d="M40.2387 29.4943C40.2387 29.5749 40.2229 29.6547 40.192 29.7292C40.1612 29.8037 40.1159 29.8714 40.0589 29.9284C40.0019 29.9854 39.9343 30.0306 39.8598 30.0615C39.7853 30.0923 39.7055 30.1082 39.6249 30.1082H28.592C28.4344 30.1006 28.2858 30.0327 28.177 29.9186C28.0682 29.8044 28.0074 29.6527 28.0074 29.495C28.0074 29.3373 28.0682 29.1856 28.177 29.0714C28.2858 28.9573 28.4344 28.8894 28.592 28.8818H39.6249C39.9634 28.8818 40.2387 29.1572 40.2387 29.4943ZM47.594 34.3983C47.594 34.5607 47.5295 34.7165 47.4146 34.8314C47.2998 34.9462 47.144 35.0108 46.9815 35.0108H28.592C28.4367 35.0002 28.2912 34.9311 28.185 34.8174C28.0787 34.7037 28.0196 34.5539 28.0196 34.3983C28.0196 34.2427 28.0787 34.0928 28.185 33.9791C28.2912 33.8654 28.4367 33.7963 28.592 33.7858H46.9801C47.3201 33.7858 47.594 34.0597 47.594 34.3983ZM47.594 39.3023C47.594 39.6394 47.3201 39.9147 46.9815 39.9147H28.592C28.4295 39.9147 28.2737 39.8502 28.1589 39.7353C28.044 39.6205 27.9795 39.4647 27.9795 39.3023C27.9795 39.1398 28.044 38.984 28.1589 38.8692C28.2737 38.7543 28.4295 38.6898 28.592 38.6898H46.9801C47.3201 38.6898 47.594 38.9637 47.594 39.3023ZM47.594 44.2062C47.594 44.5434 47.3201 44.8187 46.9815 44.8187H28.592C28.4344 44.8112 28.2858 44.7433 28.177 44.6291C28.0682 44.5149 28.0074 44.3633 28.0074 44.2055C28.0074 44.0478 28.0682 43.8961 28.177 43.782C28.2858 43.6678 28.4344 43.5999 28.592 43.5924H46.9801C47.3201 43.5924 47.594 43.8677 47.594 44.2062Z" fill="#E2E4E5"/>
<path d="M62.308 22.7515C62.308 26.7915 61.5916 30.2065 60.3948 33.0876V33.0932C59.2176 33.9698 56.7536 35.6246 54.9514 35.6246C56.0499 35.9926 57.4715 36.2497 58.8987 36.0657C57.0669 39.1421 54.7828 41.9417 51.2569 41.4037C51.8876 41.7296 52.6405 42.0302 53.4623 42.2199C49.3745 45.4859 44.3624 46.7713 39.627 47.2714C39.627 37.4634 46.8755 22.7515 62.308 22.7515Z" fill="#3E3E3F"/>
<path d="M62.308 22.7515C47.3798 22.7515 39.627 36.8467 39.627 47.2714L62.3066 22.8498L62.308 22.7515Z" fill="#5B5C5F"/>
<path d="M35.3359 52.1417L62.3071 22.7529L37.7872 51.5615L35.3359 52.1417Z" fill="#E2E4E5"/>
<path d="M62.3071 22.7515L35.3359 49.7226V52.1416L62.3071 22.7515Z" fill="#F0F1F1"/>
</svg>
