<svg width="77" height="77" viewBox="0 0 77 77" fill="none" xmlns="http://www.w3.org/2000/svg">
<rect width="76.9231" height="76.9231" rx="38.4615" fill="#02A99D"/>
<circle opacity="0.3" cx="38.8457" cy="38.0769" r="35" fill="#D9D9D9"/>
<path d="M30.6165 20.9232C29.1475 20.9232 27.7386 21.5067 26.6999 22.5455C25.6612 23.5842 25.0776 24.9931 25.0776 26.4621C25.0776 27.9311 25.6612 29.3399 26.6999 30.3787C27.7386 31.4174 29.1475 32.001 30.6165 32.001C32.0855 32.001 33.4944 31.4174 34.5331 30.3787C35.5718 29.3399 36.1554 27.9311 36.1554 26.4621C36.1554 24.9931 35.5718 23.5842 34.5331 22.5455C33.4944 21.5067 32.0855 20.9232 30.6165 20.9232ZM22.6159 26.4621C22.6159 24.3402 23.4588 22.3052 24.9592 20.8048C26.4596 19.3043 28.4946 18.4614 30.6165 18.4614C32.7384 18.4614 34.7734 19.3043 36.2738 20.8048C37.7742 22.3052 38.6171 24.3402 38.6171 26.4621C38.6171 28.584 37.7742 30.619 36.2738 32.1194C34.7734 33.6198 32.7384 34.4627 30.6165 34.4627C28.4946 34.4627 26.4596 33.6198 24.9592 32.1194C23.4588 30.619 22.6159 28.584 22.6159 26.4621ZM22.6159 36.9244C21.3101 36.9244 20.0578 37.4432 19.1344 38.3665C18.2111 39.2898 17.6924 40.5421 17.6924 41.8479V42.0547C17.6959 42.1987 17.7058 42.3424 17.7219 42.4855C17.8964 44.0809 18.463 45.6083 19.3713 46.9314C21.097 49.4301 24.4302 51.6949 30.6165 51.6949C32.9453 51.6949 34.8679 51.3748 36.4533 50.8406C36.2793 50.0283 36.1808 49.1913 36.1579 48.3297C34.7694 48.8762 32.965 49.2331 30.6165 49.2331C25.1096 49.2331 22.5962 47.2662 21.3973 45.5331C20.7259 44.5536 20.3049 43.4243 20.1714 42.2443L20.1566 42.0399L20.1541 41.9981V41.8479C20.1541 41.195 20.4135 40.5689 20.8751 40.1072C21.3368 39.6455 21.963 39.3862 22.6159 39.3862H38.6171C38.8157 39.3862 39.0086 39.4092 39.1957 39.4551C39.7536 38.7658 40.3756 38.1381 41.0616 37.5719C40.3171 37.1469 39.4744 36.9238 38.6171 36.9244H22.6159ZM49.695 24.6158C48.7156 24.6158 47.7764 25.0048 47.0839 25.6973C46.3914 26.3898 46.0024 27.329 46.0024 28.3084C46.0024 29.2877 46.3914 30.2269 47.0839 30.9194C47.7764 31.6119 48.7156 32.001 49.695 32.001C50.6743 32.001 51.6135 31.6119 52.306 30.9194C52.9985 30.2269 53.3876 29.2877 53.3876 28.3084C53.3876 27.329 52.9985 26.3898 52.306 25.6973C51.6135 25.0048 50.6743 24.6158 49.695 24.6158ZM43.5406 28.3084C43.5406 26.6761 44.189 25.1108 45.3432 23.9566C46.4973 22.8024 48.0627 22.154 49.695 22.154C51.3272 22.154 52.8926 22.8024 54.0467 23.9566C55.2009 25.1108 55.8493 26.6761 55.8493 28.3084C55.8493 29.9406 55.2009 31.506 54.0467 32.6601C52.8926 33.8143 51.3272 34.4627 49.695 34.4627C48.0627 34.4627 46.4973 33.8143 45.3432 32.6601C44.189 31.506 43.5406 29.9406 43.5406 28.3084ZM49.695 59.0801C52.1252 59.0793 54.4877 58.2794 56.4186 56.8037C58.3494 55.3279 59.7414 53.2581 60.38 50.9133C61.0186 48.5685 60.8684 46.0788 59.9526 43.8277C59.0368 41.5766 57.4062 39.6892 55.312 38.4562C53.2178 37.2232 50.7762 36.713 48.3635 37.0043C45.9508 37.2957 43.7009 38.3723 41.9603 40.0683C40.2198 41.7644 39.0853 43.9857 38.7316 46.3901C38.3779 48.7944 38.8247 51.2484 40.0031 53.3738L38.6639 57.7778C38.612 57.9522 38.6081 58.1373 38.6528 58.3137C38.6974 58.49 38.7889 58.6511 38.9175 58.7797C39.0462 58.9083 39.2072 58.9998 39.3835 59.0445C39.5599 59.0891 39.7451 59.0853 39.9194 59.0333L44.3259 57.6941C45.9692 58.6038 47.8167 59.0807 49.695 59.0801ZM43.5406 45.5405C43.5406 45.2141 43.6703 44.901 43.9011 44.6702C44.132 44.4393 44.445 44.3097 44.7715 44.3097H54.6184C54.9449 44.3097 55.258 44.4393 55.4888 44.6702C55.7196 44.901 55.8493 45.2141 55.8493 45.5405C55.8493 45.867 55.7196 46.18 55.4888 46.4109C55.258 46.6417 54.9449 46.7714 54.6184 46.7714H44.7715C44.445 46.7714 44.132 46.6417 43.9011 46.4109C43.6703 46.18 43.5406 45.867 43.5406 45.5405ZM44.7715 51.6949C44.445 51.6949 44.132 51.5652 43.9011 51.3344C43.6703 51.1035 43.5406 50.7904 43.5406 50.464C43.5406 50.1376 43.6703 49.8245 43.9011 49.5936C44.132 49.3628 44.445 49.2331 44.7715 49.2331H49.695C50.0214 49.2331 50.3345 49.3628 50.5653 49.5936C50.7961 49.8245 50.9258 50.1376 50.9258 50.464C50.9258 50.7904 50.7961 51.1035 50.5653 51.3344C50.3345 51.5652 50.0214 51.6949 49.695 51.6949H44.7715Z" fill="white"/>
</svg>
