<svg width="51" height="50" viewBox="0 0 51 50" fill="none" xmlns="http://www.w3.org/2000/svg">
<path d="M25.3746 50C39.1824 50 50.3756 38.8068 50.3756 24.999C50.3756 11.1942 39.1824 0 25.3746 0C11.5667 0 0.373535 11.1932 0.373535 25C0.373535 38.8068 11.5667 50 25.3746 50Z" fill="#02A99D"/>
<path d="M24.9197 12.5044L14.0088 20.7818V34.0918H35.8274V20.7808L24.9197 12.5044Z" fill="white"/>
<path d="M38.8262 21.9134C38.6804 22.1056 38.4643 22.2319 38.2254 22.2648C37.9865 22.2976 37.7443 22.2342 37.5522 22.0885L24.9194 12.5058L12.2865 22.0895C12.1916 22.1637 12.0828 22.2182 11.9666 22.25C11.8503 22.2818 11.7289 22.2901 11.6094 22.2746C11.4899 22.259 11.3747 22.2199 11.2705 22.1594C11.1662 22.0989 11.075 22.0183 11.0022 21.9223C10.9294 21.8263 10.8764 21.7168 10.8463 21.6001C10.8161 21.4834 10.8095 21.3619 10.8267 21.2426C10.844 21.1234 10.8848 21.0087 10.9467 20.9053C11.0086 20.802 11.0905 20.7119 11.1875 20.6405L24.3704 10.6401C24.5283 10.5197 24.7213 10.4545 24.9199 10.4545C25.1184 10.4545 25.3115 10.5197 25.4694 10.6401L38.6512 20.6405C38.843 20.7862 38.9692 21.0021 39.002 21.2408C39.0348 21.4794 38.9716 21.7214 38.8262 21.9134Z" fill="#DF2C2C"/>
<path d="M27.6478 29.5458C27.6478 28.8224 27.3604 28.1286 26.8489 27.617C26.3373 27.1055 25.6435 26.8181 24.9201 26.8181C24.1967 26.8181 23.5029 27.1055 22.9913 27.617C22.4798 28.1286 22.1924 28.8224 22.1924 29.5458V34.0908H27.6478V29.5458Z" fill="#9C6144"/>
<path d="M19.4666 23.2383C19.4669 23.2907 19.4568 23.3426 19.4369 23.391C19.417 23.4394 19.3877 23.4833 19.3507 23.5203C19.3137 23.5574 19.2697 23.5867 19.2213 23.6066C19.1729 23.6265 19.121 23.6366 19.0687 23.6363H16.6821C16.6298 23.6366 16.5779 23.6265 16.5295 23.6066C16.4811 23.5867 16.4371 23.5574 16.4001 23.5203C16.3631 23.4833 16.3338 23.4394 16.3139 23.391C16.294 23.3426 16.2839 23.2907 16.2842 23.2383V20.8528C16.2842 20.632 16.4623 20.4539 16.6821 20.4539H19.0676C19.2874 20.4539 19.4666 20.632 19.4666 20.8518V23.2383ZM19.4666 30.0563C19.4669 30.1087 19.4568 30.1605 19.4369 30.2089C19.417 30.2574 19.3877 30.3013 19.3507 30.3383C19.3137 30.3753 19.2697 30.4046 19.2213 30.4245C19.1729 30.4444 19.121 30.4545 19.0687 30.4543H16.6821C16.6298 30.4545 16.5779 30.4444 16.5295 30.4245C16.4811 30.4046 16.4371 30.3753 16.4001 30.3383C16.3631 30.3013 16.3338 30.2574 16.3139 30.2089C16.294 30.1605 16.2839 30.1087 16.2842 30.0563V27.6708C16.2842 27.451 16.4623 27.2718 16.6821 27.2718H19.0676C19.2874 27.2718 19.4666 27.451 19.4666 27.6698V30.0563ZM26.6492 23.3175C26.6489 23.4259 26.6057 23.5298 26.5289 23.6063C26.4522 23.6829 26.3482 23.7259 26.2398 23.7259H23.7855C23.6773 23.7256 23.5736 23.6825 23.4971 23.606C23.4206 23.5294 23.3775 23.4257 23.3772 23.3175V20.8632C23.3775 20.755 23.4206 20.6513 23.4971 20.5748C23.5736 20.4983 23.6773 20.4552 23.7855 20.4549H26.2398C26.3482 20.4549 26.4522 20.4979 26.5289 20.5744C26.6057 20.651 26.6489 20.7549 26.6492 20.8632V23.3175ZM33.4672 23.1602C33.4672 23.2109 33.4572 23.2611 33.4378 23.308C33.4183 23.3548 33.3898 23.3973 33.3539 23.4331C33.318 23.4689 33.2754 23.4973 33.2285 23.5166C33.1817 23.5359 33.1314 23.5458 33.0807 23.5457H30.7619C30.7112 23.5458 30.6609 23.5359 30.6141 23.5166C30.5672 23.4973 30.5246 23.4689 30.4887 23.4331C30.4528 23.3973 30.4243 23.3548 30.4048 23.308C30.3854 23.2611 30.3754 23.2109 30.3754 23.1602V20.8403C30.3754 20.7381 30.416 20.6401 30.4883 20.5678C30.5606 20.4955 30.6586 20.4549 30.7608 20.4549H33.0807C33.1314 20.4548 33.1817 20.4646 33.2285 20.4839C33.2754 20.5032 33.318 20.5316 33.3539 20.5674C33.3898 20.6032 33.4183 20.6458 33.4378 20.6926C33.4572 20.7394 33.4672 20.7896 33.4672 20.8403V23.1602Z" fill="#40C9E7"/>
<path d="M26.2843 31.365C26.4049 31.365 26.5205 31.3171 26.6058 31.2318C26.6911 31.1465 26.739 31.0309 26.739 30.9103C26.739 30.7897 26.6911 30.674 26.6058 30.5887C26.5205 30.5035 26.4049 30.4556 26.2843 30.4556C26.1637 30.4556 26.048 30.5035 25.9628 30.5887C25.8775 30.674 25.8296 30.7897 25.8296 30.9103C25.8296 31.0309 25.8775 31.1465 25.9628 31.2318C26.048 31.3171 26.1637 31.365 26.2843 31.365Z" fill="#FACB1B"/>
<path d="M35.0616 28.6366H22.9195L18.5547 39.5454H39.4243L35.0616 28.6366Z" fill="white"/>
<path d="M19.8994 38.6357H23.7902L24.4809 36.3638H20.8088L19.8994 38.6357Z" fill="#FACB1B"/>
<path d="M26.5575 29.5461H23.5345L21.1719 35.4558H24.7574L26.5575 29.5461Z" fill="#17B198"/>
<path d="M25.988 34.5463L24.7432 38.6371H30.5976L34.1029 34.5463H25.988Z" fill="#F99134"/>
<path d="M26.2622 33.6369H34.8844L35.6991 32.6869L34.4438 29.5461H27.5071L26.2622 33.6369ZM31.7937 38.6371H34.3813L33.1083 37.1048L31.7937 38.6371Z" fill="#FACB1B"/>
<path d="M36.0816 33.6368L33.7075 36.4047L35.567 38.636H38.0806L36.0816 33.6368Z" fill="#059BBF"/>
<path d="M32.2757 26.4052C32.2757 28.1855 29.0526 34.9993 29.0526 34.9993C29.0526 34.9993 25.8296 28.1855 25.8296 26.4052C25.8296 25.5504 26.1692 24.7306 26.7736 24.1261C27.378 23.5217 28.1978 23.1821 29.0526 23.1821C29.9074 23.1821 30.7272 23.5217 31.3317 24.1261C31.9361 24.7306 32.2757 25.5504 32.2757 26.4052Z" fill="#DF2C2C"/>
<path d="M29.0512 23.1821C28.1965 23.1824 27.3768 23.5221 26.7724 24.1264C26.1681 24.7308 25.8284 25.5505 25.8281 26.4052C25.8281 28.1855 29.0522 34.9993 29.0522 34.9993L29.0512 23.1821Z" fill="#FA5655"/>
<path d="M29.0511 27.2718C29.2346 27.279 29.4177 27.249 29.5894 27.1837C29.7611 27.1185 29.9179 27.0192 30.0503 26.8918C30.1827 26.7645 30.288 26.6118 30.36 26.4427C30.4319 26.2737 30.469 26.0919 30.469 25.9082C30.469 25.7245 30.4319 25.5427 30.36 25.3737C30.288 25.2047 30.1827 25.0519 30.0503 24.9246C29.9179 24.7973 29.7611 24.698 29.5894 24.6327C29.4177 24.5674 29.2346 24.5374 29.0511 24.5446C28.6958 24.5544 28.3584 24.7025 28.1106 24.9572C27.8628 25.212 27.7241 25.5533 27.7241 25.9087C27.7241 26.2641 27.8628 26.6055 28.1106 26.8603C28.3584 27.115 28.6958 27.262 29.0511 27.2718Z" fill="white"/>
</svg>
